<?xml version="1.0" encoding="utf-8"?>
<!-- Generator: Adobe Illustrator 20.1.0, SVG Export Plug-In . SVG Version: 6.00 Build 0)  -->
<svg version="1.1" id="Layer_1" xmlns="http://www.w3.org/2000/svg" xmlns:xlink="http://www.w3.org/1999/xlink" x="0px" y="0px"
	 viewBox="0 0 55 55" style="enable-background:new 0 0 55 55;" xml:space="preserve">
<style type="text/css">
	.st0{fill:#FFFFFF;}
	.st1{fill:#141630;}
</style>
<g id="XMLID_1_">
	<g>
		<path class="st0" d="M52.7,6.3v42.5c0,2.2-1.8,3.9-3.9,3.9H37.8h-10H6.3c-2.2,0-3.9-1.8-3.9-3.9V6.3c0-2.2,1.7-3.9,3.9-3.9h42.5
			C50.9,2.3,52.7,4.1,52.7,6.3z M50.1,48.7V6.3c0-0.8-0.6-1.4-1.4-1.4H6.3c-0.8,0-1.4,0.6-1.4,1.4v42.5c0,0.8,0.6,1.4,1.4,1.4h21.6
			v-16h-6.2v-9.7h6.2v-4.1c0-3.3,1-6.1,2.9-8c1.9-1.8,4.5-2.8,7.6-2.8c2.9,0,5.2,0.2,5.8,0.3l1.1,0.1v8.8l-5.1,0c-1,0-1.7,0.2-2,0.5
			c-0.3,0.3-0.4,0.8-0.4,1.7v3.4h7.4l-1.3,9.7h-6.1v16h11C49.5,50.1,50.1,49.5,50.1,48.7z M42.7,16.3v-4c-1.1-0.1-2.6-0.2-4.3-0.2
			c-2.4,0-4.5,0.7-5.8,2.1c-1.4,1.4-2.2,3.6-2.2,6.2V27h-6.2v4.6h6.2v18.5h4.8V31.6h6.4l0.6-4.6h-7v-5.9c0-1.2,0-4.8,4.9-4.8
			L42.7,16.3z"/>
		<path class="st1" d="M50.1,6.3v42.5c0,0.8-0.6,1.4-1.4,1.4h-11v-16h6.1l1.3-9.7h-7.4v-3.4c0-0.9,0.1-1.4,0.4-1.7
			c0.3-0.4,1-0.5,2-0.5l5.1,0V10l-1.1-0.1c-0.6-0.1-2.9-0.3-5.8-0.3c-3.1,0-5.7,1-7.6,2.8c-1.9,1.9-2.9,4.7-2.9,8v4.1h-6.2v9.7h6.2
			v16H6.3c-0.8,0-1.4-0.6-1.4-1.4V6.3c0-0.8,0.6-1.4,1.4-1.4h42.5C49.5,4.9,50.1,5.5,50.1,6.3z"/>
		<path class="st1" d="M42.7,12.3v4l-2.6,0c-4.8,0-4.9,3.6-4.9,4.8V27h7l-0.6,4.6h-6.4v18.5h-4.8V31.6h-6.2V27h6.2v-6.6
			c0-2.6,0.8-4.8,2.2-6.2c1.4-1.4,3.4-2.1,5.8-2.1C40.1,12.1,41.6,12.2,42.7,12.3z"/>
	</g>
	<g>
	</g>
</g>
</svg>
